<mxfile>
    <diagram id="QYjEEqlRkI_7uzjRimcx" name="Page-1">
        <mxGraphModel dx="1130" dy="790" grid="1" gridSize="10" guides="1" tooltips="1" connect="1" arrows="1" fold="1" page="1" pageScale="1" pageWidth="827" pageHeight="1169" math="0" shadow="0">
            <root>
                <mxCell id="0"/>
                <mxCell id="1" parent="0"/>
                <mxCell id="18" value="&lt;font color=&quot;#3333ff&quot;&gt;VaccinationPredictionSystem&lt;/font&gt;" style="whiteSpace=wrap;html=1;strokeColor=#3333FF;spacing=4;horizontal=1;verticalAlign=top;" parent="1" vertex="1">
                    <mxGeometry x="70" y="90" width="460" height="540" as="geometry"/>
                </mxCell>
                <mxCell id="63" style="edgeStyle=orthogonalEdgeStyle;rounded=0;orthogonalLoop=1;jettySize=auto;html=1;exitX=0.5;exitY=1;exitDx=0;exitDy=0;exitPerimeter=0;entryX=0.5;entryY=0;entryDx=0;entryDy=0;strokeColor=#3333FF;fontColor=#3333FF;" parent="1" source="5" target="11" edge="1">
                    <mxGeometry relative="1" as="geometry"/>
                </mxCell>
                <mxCell id="5" value="&lt;font style=&quot;font-size: 10px&quot;&gt;DriverDB&lt;br&gt;&lt;/font&gt;" style="shape=cylinder3;whiteSpace=wrap;html=1;boundedLbl=1;backgroundOutline=1;size=15;" parent="1" vertex="1">
                    <mxGeometry x="406.44" y="10" width="50" height="60" as="geometry"/>
                </mxCell>
                <mxCell id="6" value="quandovouservacinado" style="ellipse;shape=cloud;whiteSpace=wrap;html=1;" parent="1" vertex="1">
                    <mxGeometry x="570" y="130" width="200" height="60" as="geometry"/>
                </mxCell>
                <mxCell id="8" value="" style="endArrow=classic;html=1;entryX=1;entryY=0.5;entryDx=0;entryDy=0;exitX=0.07;exitY=0.4;exitDx=0;exitDy=0;exitPerimeter=0;edgeStyle=orthogonalEdgeStyle;" parent="1" source="6" target="7" edge="1">
                    <mxGeometry width="50" height="50" relative="1" as="geometry">
                        <mxPoint x="500" y="430" as="sourcePoint"/>
                        <mxPoint x="550" y="380" as="targetPoint"/>
                    </mxGeometry>
                </mxCell>
                <mxCell id="12" value="" style="html=1;exitX=0.667;exitY=1;exitDx=0;exitDy=0;exitPerimeter=0;fontSize=12;strokeColor=#3333FF;fillColor=#2a2a2a;spacing=4;" parent="1" source="2" edge="1">
                    <mxGeometry relative="1" as="geometry">
                        <mxPoint x="400" y="260" as="sourcePoint"/>
                        <mxPoint x="408" y="370" as="targetPoint"/>
                    </mxGeometry>
                </mxCell>
                <mxCell id="13" value="" style="shape=message;html=1;outlineConnect=0;strokeColor=#3333FF;spacing=4;" parent="12" vertex="1">
                    <mxGeometry width="20" height="14" relative="1" as="geometry">
                        <mxPoint x="-10" y="-7" as="offset"/>
                    </mxGeometry>
                </mxCell>
                <mxCell id="27" value="vaccination_estimate_event" style="edgeLabel;html=1;align=center;verticalAlign=middle;resizable=0;points=[];fontColor=#3333FF;" parent="12" vertex="1" connectable="0">
                    <mxGeometry x="0.5038" y="-3" relative="1" as="geometry">
                        <mxPoint as="offset"/>
                    </mxGeometry>
                </mxCell>
                <mxCell id="15" value="" style="group" parent="1" vertex="1" connectable="0">
                    <mxGeometry x="320" y="140" width="140" height="140" as="geometry"/>
                </mxCell>
                <mxCell id="2" value="&lt;p style=&quot;line-height: 120%&quot;&gt;&lt;font color=&quot;#3333ff&quot;&gt;DriverQoLService&lt;/font&gt;&lt;/p&gt;" style="whiteSpace=wrap;html=1;aspect=fixed;verticalAlign=middle;spacing=4;strokeColor=#3333FF;" parent="15" vertex="1">
                    <mxGeometry x="17.5" width="105" height="105" as="geometry"/>
                </mxCell>
                <mxCell id="4" value="" style="shape=cylinder3;whiteSpace=wrap;html=1;boundedLbl=1;backgroundOutline=1;size=15;strokeColor=#3333FF;spacing=4;" parent="15" vertex="1">
                    <mxGeometry x="10" y="77" width="33.75" height="46" as="geometry"/>
                </mxCell>
                <mxCell id="7" value="&lt;font style=&quot;font-size: 9px&quot; color=&quot;#3333ff&quot;&gt;WebCrawler&lt;/font&gt;" style="whiteSpace=wrap;html=1;strokeColor=#3333FF;spacing=4;" parent="15" vertex="1">
                    <mxGeometry x="87.5" y="68.13333333333334" width="52.5" height="33.6" as="geometry"/>
                </mxCell>
                <mxCell id="11" value="&lt;font style=&quot;font-size: 8px&quot; color=&quot;#3333ff&quot;&gt;DBSync&lt;/font&gt;" style="whiteSpace=wrap;html=1;aspect=fixed;strokeColor=#3333FF;spacing=4;" parent="15" vertex="1">
                    <mxGeometry x="96.38" y="-4.9966666666666555" width="30.1175" height="32.375" as="geometry"/>
                </mxCell>
                <mxCell id="30" value="" style="rounded=0;orthogonalLoop=1;jettySize=auto;html=1;" parent="1" source="19" target="29" edge="1">
                    <mxGeometry relative="1" as="geometry"/>
                </mxCell>
                <mxCell id="44" style="edgeStyle=none;rounded=0;orthogonalLoop=1;jettySize=auto;html=1;exitX=0.875;exitY=0.5;exitDx=0;exitDy=0;exitPerimeter=0;entryX=0;entryY=0.5;entryDx=0;entryDy=0;" parent="1" source="19" target="37" edge="1">
                    <mxGeometry relative="1" as="geometry"/>
                </mxCell>
                <mxCell id="45" style="edgeStyle=none;rounded=0;orthogonalLoop=1;jettySize=auto;html=1;exitX=0.96;exitY=0.7;exitDx=0;exitDy=0;exitPerimeter=0;entryX=0;entryY=0.5;entryDx=0;entryDy=0;" parent="1" source="19" target="41" edge="1">
                    <mxGeometry relative="1" as="geometry"/>
                </mxCell>
                <mxCell id="19" value="FCM" style="ellipse;shape=cloud;whiteSpace=wrap;html=1;" parent="1" vertex="1">
                    <mxGeometry x="540" y="527" width="90" height="60" as="geometry"/>
                </mxCell>
                <mxCell id="20" value="&lt;font color=&quot;#3333ff&quot;&gt;Message Broker&lt;/font&gt;" style="rounded=0;whiteSpace=wrap;html=1;strokeColor=#3333FF;" parent="1" vertex="1">
                    <mxGeometry x="90" y="370" width="420" height="60" as="geometry"/>
                </mxCell>
                <mxCell id="28" style="edgeStyle=orthogonalEdgeStyle;rounded=0;orthogonalLoop=1;jettySize=auto;html=1;exitX=1;exitY=0.5;exitDx=0;exitDy=0;entryX=0.16;entryY=0.55;entryDx=0;entryDy=0;entryPerimeter=0;" parent="1" source="22" target="19" edge="1">
                    <mxGeometry relative="1" as="geometry"/>
                </mxCell>
                <mxCell id="22" value="&lt;font color=&quot;#3333ff&quot;&gt;ProxyFCM&lt;/font&gt;" style="whiteSpace=wrap;html=1;aspect=fixed;fillColor=#2a2a2a;strokeColor=#3333FF;spacing=4;verticalAlign=middle;" parent="1" vertex="1">
                    <mxGeometry x="260" y="520" width="80" height="80" as="geometry"/>
                </mxCell>
                <mxCell id="24" value="" style="html=1;entryX=0.5;entryY=0;entryDx=0;entryDy=0;exitX=0.5;exitY=1;exitDx=0;exitDy=0;fontSize=12;strokeColor=#3333FF;fillColor=#2a2a2a;spacing=4;" parent="1" source="20" target="22" edge="1">
                    <mxGeometry relative="1" as="geometry">
                        <mxPoint x="240" y="480" as="sourcePoint"/>
                        <mxPoint x="340" y="480" as="targetPoint"/>
                    </mxGeometry>
                </mxCell>
                <mxCell id="25" value="" style="shape=message;html=1;outlineConnect=0;strokeColor=#3333FF;spacing=4;" parent="24" vertex="1">
                    <mxGeometry width="20" height="14" relative="1" as="geometry">
                        <mxPoint x="-10" y="-7" as="offset"/>
                    </mxGeometry>
                </mxCell>
                <mxCell id="26" value="new_notification_event" style="edgeLabel;html=1;align=center;verticalAlign=middle;resizable=0;points=[];fontColor=#3333FF;" parent="24" vertex="1" connectable="0">
                    <mxGeometry x="-0.5111" y="-3" relative="1" as="geometry">
                        <mxPoint as="offset"/>
                    </mxGeometry>
                </mxCell>
                <mxCell id="35" value="" style="group" parent="1" vertex="1" connectable="0">
                    <mxGeometry x="703.75" y="467" width="32.5" height="60" as="geometry"/>
                </mxCell>
                <mxCell id="29" value="" style="whiteSpace=wrap;html=1;rounded=1;glass=0;" parent="35" vertex="1">
                    <mxGeometry width="32.5" height="60" as="geometry"/>
                </mxCell>
                <mxCell id="31" value="" style="rounded=1;whiteSpace=wrap;html=1;fillColor=#2a2a2a;" parent="35" vertex="1">
                    <mxGeometry x="4.25" y="3" width="24" height="51" as="geometry"/>
                </mxCell>
                <mxCell id="34" value="" style="rounded=1;whiteSpace=wrap;html=1;glass=0;fillColor=#2a2a2a;" parent="35" vertex="1">
                    <mxGeometry x="8.129999999999995" y="56" width="16.25" height="2" as="geometry"/>
                </mxCell>
                <mxCell id="36" value="" style="group" parent="1" vertex="1" connectable="0">
                    <mxGeometry x="703.75" y="530" width="32.5" height="60" as="geometry"/>
                </mxCell>
                <mxCell id="37" value="" style="whiteSpace=wrap;html=1;rounded=1;glass=0;" parent="36" vertex="1">
                    <mxGeometry width="32.5" height="60" as="geometry"/>
                </mxCell>
                <mxCell id="38" value="" style="rounded=1;whiteSpace=wrap;html=1;fillColor=#2a2a2a;" parent="36" vertex="1">
                    <mxGeometry x="4.25" y="3" width="24" height="51" as="geometry"/>
                </mxCell>
                <mxCell id="39" value="" style="rounded=1;whiteSpace=wrap;html=1;glass=0;fillColor=#2a2a2a;" parent="36" vertex="1">
                    <mxGeometry x="8.129999999999995" y="56" width="16.25" height="2" as="geometry"/>
                </mxCell>
                <mxCell id="40" value="" style="group" parent="1" vertex="1" connectable="0">
                    <mxGeometry x="703.75" y="600" width="32.5" height="60" as="geometry"/>
                </mxCell>
                <mxCell id="41" value="" style="whiteSpace=wrap;html=1;rounded=1;glass=0;" parent="40" vertex="1">
                    <mxGeometry width="32.5" height="60" as="geometry"/>
                </mxCell>
                <mxCell id="42" value="" style="rounded=1;whiteSpace=wrap;html=1;fillColor=#2a2a2a;" parent="40" vertex="1">
                    <mxGeometry x="4.25" y="3" width="24" height="51" as="geometry"/>
                </mxCell>
                <mxCell id="43" value="" style="rounded=1;whiteSpace=wrap;html=1;glass=0;fillColor=#2a2a2a;" parent="40" vertex="1">
                    <mxGeometry x="8.129999999999995" y="56" width="16.25" height="2" as="geometry"/>
                </mxCell>
                <mxCell id="47" value="" style="group" parent="1" vertex="1" connectable="0">
                    <mxGeometry x="100" y="140" width="140" height="140" as="geometry"/>
                </mxCell>
                <mxCell id="48" value="&lt;p style=&quot;line-height: 120%&quot;&gt;&lt;font color=&quot;#3333ff&quot;&gt;NotificationService&lt;/font&gt;&lt;/p&gt;" style="whiteSpace=wrap;html=1;aspect=fixed;verticalAlign=middle;spacing=4;strokeColor=#3333FF;" parent="47" vertex="1">
                    <mxGeometry x="17.5" width="105" height="105" as="geometry"/>
                </mxCell>
                <mxCell id="49" value="" style="shape=cylinder3;whiteSpace=wrap;html=1;boundedLbl=1;backgroundOutline=1;size=15;strokeColor=#3333FF;" parent="47" vertex="1">
                    <mxGeometry x="10" y="77" width="33.75" height="46" as="geometry"/>
                </mxCell>
                <mxCell id="52" value="" style="endArrow=classic;html=1;exitX=0.75;exitY=1;exitDx=0;exitDy=0;entryX=0.25;entryY=0;entryDx=0;entryDy=0;strokeColor=#3333FF;" parent="1" source="48" target="20" edge="1">
                    <mxGeometry relative="1" as="geometry">
                        <mxPoint x="189.9950000000001" y="242.5" as="sourcePoint"/>
                        <mxPoint x="190.46" y="367.5" as="targetPoint"/>
                    </mxGeometry>
                </mxCell>
                <mxCell id="53" value="" style="shape=message;html=1;outlineConnect=0;strokeColor=#3333FF;spacing=4;" parent="52" vertex="1">
                    <mxGeometry width="20" height="14" relative="1" as="geometry">
                        <mxPoint x="-10" y="-7" as="offset"/>
                    </mxGeometry>
                </mxCell>
                <mxCell id="54" value="new_notification_event" style="edgeLabel;html=1;align=center;verticalAlign=middle;resizable=0;points=[];fontColor=#3333FF;" parent="52" vertex="1" connectable="0">
                    <mxGeometry x="0.5038" y="-3" relative="1" as="geometry">
                        <mxPoint as="offset"/>
                    </mxGeometry>
                </mxCell>
                <mxCell id="55" value="" style="endArrow=classic;html=1;exitX=0.124;exitY=0.033;exitDx=0;exitDy=0;exitPerimeter=0;entryX=0.25;entryY=1;entryDx=0;entryDy=0;strokeColor=#3333FF;" parent="1" source="20" target="48" edge="1">
                    <mxGeometry relative="1" as="geometry">
                        <mxPoint x="150.45999999999998" y="370" as="sourcePoint"/>
                        <mxPoint x="149.99500000000006" y="245" as="targetPoint"/>
                    </mxGeometry>
                </mxCell>
                <mxCell id="56" value="" style="shape=message;html=1;outlineConnect=0;strokeColor=#3333FF;spacing=4;" parent="55" vertex="1">
                    <mxGeometry width="20" height="14" relative="1" as="geometry">
                        <mxPoint x="-10" y="-7" as="offset"/>
                    </mxGeometry>
                </mxCell>
                <mxCell id="57" value="vaccination_estimate_event" style="edgeLabel;html=1;align=center;verticalAlign=middle;resizable=0;points=[];fontColor=#3333FF;" parent="55" vertex="1" connectable="0">
                    <mxGeometry x="0.5038" y="-3" relative="1" as="geometry">
                        <mxPoint as="offset"/>
                    </mxGeometry>
                </mxCell>
                <mxCell id="59" value="" style="shape=message;html=1;outlineConnect=0;strokeColor=#3333FF;spacing=4;" parent="1" vertex="1">
                    <mxGeometry x="109.99848403111659" y="389.9954477418071" width="20" height="14" as="geometry"/>
                </mxCell>
                <mxCell id="60" value="" style="shape=message;html=1;outlineConnect=0;strokeColor=#3333FF;spacing=4;" parent="1" vertex="1">
                    <mxGeometry x="139.9984840311166" y="389.9954477418071" width="20" height="14" as="geometry"/>
                </mxCell>
                <mxCell id="61" value="" style="shape=message;html=1;outlineConnect=0;strokeColor=#3333FF;spacing=4;" parent="1" vertex="1">
                    <mxGeometry x="169.9984840311166" y="389.9954477418071" width="20" height="14" as="geometry"/>
                </mxCell>
                <mxCell id="62" value="" style="shape=message;html=1;outlineConnect=0;strokeColor=#3333FF;spacing=4;" parent="1" vertex="1">
                    <mxGeometry x="199.9984840311166" y="389.9954477418071" width="20" height="14" as="geometry"/>
                </mxCell>
            </root>
        </mxGraphModel>
    </diagram>
</mxfile>